<svg data-name="bag-hero" xmlns="http://www.w3.org/2000/svg" width="327.02" height="480.05" viewBox="0 0 327.02 480.05">
        <title>
          infographicweb
        </title>
        <path class="shopping-bag" d="M310.32 114.5l-1.17-1.4-4-4.72-1.81 6.07-.35 1.2-2.61.41-1.22-1.46-4-4.72-1.8 6.07-.38 1.28-2.52.4-1.29-1.53-4-4.72-1.8 6.07-.4 1.36-2.44.39-1.34-1.6-4-4.72-1.8 6.07-.43 1.44-2.36.38-1.4-1.67-4-4.72-1.8 6.07-.24 1.55-2.28.37-1.45-1.74-4-4.72-1.8 6.07-.48 1.6-2.2.35-1.51-1.79-4-4.73-1.8 6.07-.5 1.69-2.12.33-1.56-1.86-.48-.57 8.56-26.78S286 13.9 180.05 20.42c-21.3 1.31-35.51 7.9-44.63 17.6-3.52.38-7.18.87-11 1.49C50 51.59 74.49 112.34 94.52 146l-.83 2.79-.93.15-2.4-2.87-4-4.72-1.8 6.07-.88 3-.85.13-2.46-2.94-4-4.72-1.72 6.11-.9 3-.77.12-2.52-3-4-4.72-1.81 6.07-.92 3.12-.69.11-2.57-3.07-4-4.73-1.71 6.1-.95 3.2-.61.09-2.63-3.13-3.95-4.73-1.81 6.07-1 3.28-.53.08-2.68-3.2-4-4.73-1.73 6.07-1 3.35-.45.07-2.74-3.27-4-4.73-1.8 6.08-1 3.43-3.07 2L58.4 430h203.74l52-314.62zm-176.76 28l-1.24.2-2.18-2.6-4-4.73-1.8 6.08-.79 2.63-1.16.19-2.24-2.67-4-4.72-1.8 6.07-.8 2.71-1.09.18-2.29-2.74-4-4.72-1.8 6.07-.74 2.47C47 49 129.23 46 129.23 46h.16c-16.22 27.2-5.13 69.61 4.44 95.58zm54.49-13.5l-2.2-2.63-1.8 6.07-.64 2.16-1.65.26-1.9-2.27-3.95-4.72-1.81 6.13-.66 2.24-1.57.25-1.95-2.34-4-4.72-1.8 6.07-.69 2.32-1.43.18-2-2.4-4-4.73-1.8 6.07-.71 2.4-1.4.22-2.09-2.44-4-4.73-1.8 6.07-.74 2.48-1.32.21-.55-.65c-18-52.82-11.69-80.84.9-95.66 73.69-3.84 52.57 51.35 52.57 51.35zm37.58-8.64l-1.8 6.08-.55 1.84-2 .31-1.67-2-4-4.73-1.8 6.08-.57 1.92-1.89.3-1.73-2.07-4-4.72-1.8 6.07-.59 2-1.81.28-1.79-2.13-2.23-2.67 5.24-28.57s20.89-61.69-51.53-61.3c15-10.1 32.5-8.69 32.5-8.69 90.64-2.12 56.7 64.5 56.7 64.5l-11.14 31.87z" fill="#d1a870"/>
        <path d="M205.63 440l-13.23 4.62s-4.68-4.31-16 4.05l72.27-1.21a25.15 25.15 0 0 0-15-4.27c-9.07.25-12.29-3-12.29-3z" fill="#231f20"/>
        <path d="M227.35 427.18l-.38 16-24-.57-1.97-13.92c-22.41-39.89-12.3-113.58-12.3-113.58s.18-.26.52-.72l44.61.61c.43 1.25.84 2.58 1.24 4 14.29 50.32-7.72 108.18-7.72 108.18z" fill="#372220"/>
        <path d="M234.66 166.51l-.18.52.48-5.34c-1 .78-1.73 2.74-2.12 3.9a9.54 9.54 0 0 0-3.95-11.12l-5 3.28v-3.34l-5.62 3.27s-21.36 5.68-22.48 8c-.28 14.23-.16 38.08 3.64 41.56 5.46 5 10.66 15.72 10.66 15.72l20.36-11.73L233.2 181a8.76 8.76 0 0 0 2.25-1.57c8.71-7.72-.79-12.92-.79-12.92z" fill="#f2cfa0"/>
        <ellipse cx="205.84" cy="200.3" rx="3.8" ry="4" transform="rotate(-89.27 205.848 200.3)" fill="#cf917f"/>
        <path d="M271.29 250.69l-20 9.94-17 54.33h-.43l-44.61-.56h-1.41l1.2-92.89 15.9-9.25s19.14 5.49 26.51-4.6z" fill="#d12026"/>
        <path fill="#fcfcee" d="M211.14 236.37l4.52-7.16 3.11 7.67 3.97-1.42-2.82 12.39 6.46-5.23.94 3.2 6.7-.6-2.27 6.97 2.6 2.1-10.72 7.46-.28 4.13-9.51-2.18-.78 11.55-2.2-.15 1.26-11.02-10.22.6 1.36-4.15-9.81-9.68 2.51-1.65-1.02-6.77 6.47 1.89.84-3.3 7.13 6.13-1.98-12.07 3.74 1.29"/>
        <path d="M215 169.9l.31.81c.18.52.49 1.25.83 2.12s.77 1.88 1.3 2.89a9.36 9.36 0 0 0 .91 1.45 1.93 1.93 0 0 0 1.1.83 1.46 1.46 0 0 0 1.07-.69 8.42 8.42 0 0 0 .88-1.44c.52-1 .9-2 1.24-2.91s.62-1.61.79-2.14.31-.81.31-.81 0 .32-.1.87-.18 1.34-.38 2.27c-.1.47-.23 1-.38 1.5a15.37 15.37 0 0 1-.58 1.64 7.66 7.66 0 0 1-.93 1.7 3.39 3.39 0 0 1-.79.77 1.91 1.91 0 0 1-1.24.36 2.9 2.9 0 0 1-1.86-1.29 8.47 8.47 0 0 1-.93-1.68 18.28 18.28 0 0 1-1-3.12c-.23-.93-.34-1.72-.43-2.26s-.12-.87-.12-.87zm-14.64-.9l.3.93c.18.59.48 1.43.81 2.42s.75 2.15 1.28 3.33a12.27 12.27 0 0 0 .9 1.72 2.14 2.14 0 0 0 1.15 1.05 1.62 1.62 0 0 0 1.1-.91 10.46 10.46 0 0 0 .88-1.72c.26-.58.46-1.19.68-1.74l.54-1.61c.32-1 .62-1.84.78-2.43s.31-.93.31-.93 0 .35-.1 1-.17 1.5-.37 2.55c-.09.53-.23 1.09-.37 1.69a19.08 19.08 0 0 1-.56 1.86 9.77 9.77 0 0 1-.38 1 5.7 5.7 0 0 1-.51 1 2.61 2.61 0 0 1-.33.48 2.42 2.42 0 0 1-.43.46 1.84 1.84 0 0 1-1.37.51 2.14 2.14 0 0 1-1.24-.66 4.51 4.51 0 0 1-.72-.93 10.76 10.76 0 0 1-.9-1.93 23.56 23.56 0 0 1-1-3.53 28.54 28.54 0 0 1-.45-3.61z" fill="#231f20"/>
        <path d="M232.27 187.43a3.82 3.82 0 1 1-3.77-3.84 3.81 3.81 0 0 1 3.77 3.84zm-22.09-24.63l-.34 26.37s2.37 3.63 4.87.06c0 0 4.67.53 2.7-3.13s-3.5-1.08-3.5-1.08l-.62-22.19z" fill="#cf917f"/>
        <path d="M209.82 200.31s4.44-2 8.64-4.34c.52-.31 1-.61 1.54-.93s1-.61 1.46-.93c1-.59 1.84-1.15 2.56-1.66a11.31 11.31 0 0 0 1-.72c.27-.24.55-.41.72-.6.36-.37.59-.58.59-.58h.08s-.14.27-.41.75a4.67 4.67 0 0 1-.6.78 7.9 7.9 0 0 1-.88.92 11.56 11.56 0 0 1-1.15 1c-.41.34-.89.62-1.37.95-1 .6-2.08 1.15-3.17 1.69-2.19 1.08-4.42 2-6.12 2.7s-2.84 1.06-2.84 1.06z" fill="#231f20"/>
        <path d="M237.28 162.56c-.83-1.42-1.63-1.46-2.33-.87-1 .78-1.73 2.74-2.12 3.9a9.54 9.54 0 0 0-3.95-11.12l-5 3.28v-3.34l-5.62 3.27s-21.36 5.68-22.48 8c-1 2.2-19-7.66-20.54-8.49 9.53 5 14.58.13 14.58.13 10.57-23.16 32.18-12.65 32.18-12.65l4.81.64.1-7.49 2.14 5.79 3.86-3.41-1.61 7.48c6.5 1.23 5.98 14.88 5.98 14.88z" fill="#483d30"/>
        <path d="M188.64 222.67l-18.27 47.92L187.82 286s11.51-29.54 8.33-59.27l7.73-7.51-3.08-9.45 3.22-1.41 5.2.07v-3.83l-7.6-.1z" fill="#f2cfa0"/>
        <path d="M218.5 162.88s.1-.11.29-.27a2.81 2.81 0 0 1 .94-.51 4 4 0 0 1 1.49-.22 4.24 4.24 0 0 1 .85.11 7.56 7.56 0 0 1 .85.26 7.93 7.93 0 0 1 .78.43 4.41 4.41 0 0 1 .67.54 4 4 0 0 1 .87 1.23 2.94 2.94 0 0 1 .28 1 3.1 3.1 0 0 1 0 .41h-.1l-.17-.3a4.59 4.59 0 0 0-.54-.74 6.38 6.38 0 0 0-4.95-2.11 4.62 4.62 0 0 0-.91.12l-.34.08zm-9.96-2.1a4.37 4.37 0 0 1-.54 1.07 5.65 5.65 0 0 1-.71.88 5.15 5.15 0 0 1-.45.43l-.5.4-.54.35a6.8 6.8 0 0 1-1.61.7 4.4 4.4 0 0 1-1.19.18l-.07-.09 2.73-2.06 2.8-2z" fill="#231f20"/>
        <path d="M254.4 297l4.85 6.06L248.84 315l-12.76-3.73c-8.28-23.5 15.92-50.82 15.92-50.82l20-9.94 2.87 11.13-30.37 38.81 3.18 5.5 6.65-2.91-6.58-2.48z" fill="#f2cfa0"/>
        <path d="M117.1 204.51s-18.44-23.27-24.22 5.83z" fill="#0e0e0e"/>
        <path d="M151.4 231.2s-7.91 16.89-31.2 12.7c0 0-11.62 3.75-5.25 16.82s-6.32-3.4-6.32-3.4 5.17-9-5.81-19.53C98 233.18 92.06 226.4 90.15 220c-9.15-14 1.85-11.43 2.7-11.2a19.69 19.69 0 0 1 7.24-3.78 57 57 0 0 1 13-2.2c12.73-.91 21.23 2 26.91 6.23a28 28 0 0 1 9.26 12.38 30.61 30.61 0 0 1 2.14 9.77zM83 281.33l-.17 12.94-8.25-2.49c-3.72-16.07-6.33-50.11-6.33-50.11l-15.48.59-5.93-5.19c3.65 1.58 15.47 2.56 20.66 2.92l2.5.16h1.78z" fill="#a97c50"/>
        <path d="M67.63 240.22l-1.83-7.85-3.75.15s2.13-.52 5.58 7.7z" fill="#a97c50"/>
        <path d="M150.58 295.13l-8.66 6.78-9.58-34.75c-3.62 7.45-12.68 27.36-13.92 42.55l3.46 7.41-22.94-4.63-4.55 1.68L98 301.35l-6.5-44.25c.67 6-8.62 36.31-8.62 36.31l.12-12.08c1.89-11.62.52-41 .52-41l16.18 10.4 9.83 3.88 3.74 1.47 20.52 8.1 15.11 27.92z" fill="#fcfcee"/>
        <path d="M141.92 301.91l30.34-42.45-2.49-9.58s3.75 2.31 5.71 8.29l2.93-2.1s12.76 2.18 16.48 6.56l-16.25-1.94-4.08 1.1L148.64 310zm-29.05 122.55l-.19 14.42-8.25-.11-1.85-14.59c.14.25.3.51.45.76l9.33.12s.18-.2.51-.6z" fill="#a97c50"/>
        <path d="M112.87 424.46c-.33.4-.51.6-.51.6l-9.33-.12c-.15-.25-.31-.51-.45-.76-31.34-52.18-8.19-110-8.19-110l4.55-1.68 22.94 4.63c17.58 70.6-5.28 102.69-9.01 107.33z" fill="#372220"/>
        <path d="M126 208.79l-2.77 14.75s5.67 3 0 3.74c0 0-3.11 1.5-4.38-1.59 0 0-3-2.07 0-3.2l5-13.46z" fill="#8c5929"/>
        <path d="M102.44 219.81s.23.47.72 1.25c.23.4.55.85.9 1.38s.78 1.1 1.28 1.7 1 1.25 1.64 1.9 1.31 1.28 2 2a25.9 25.9 0 0 0 2.34 1.85l1.26.87 1.35.75a22.75 22.75 0 0 0 2.76 1.34 9.34 9.34 0 0 0 1.42.52l1.4.45c.93.28 1.86.4 2.72.61a17.09 17.09 0 0 0 2.49.32 19.14 19.14 0 0 0 2.12.15h3.09l-1.43.15-1.65.15a13.33 13.33 0 0 1-2.15 0 17.56 17.56 0 0 1-2.55-.19 25.43 25.43 0 0 1-2.81-.52l-1.45-.43a9.79 9.79 0 0 1-1.47-.51 23.07 23.07 0 0 1-2.87-1.34l-1.38-.8-1.28-.92a26.62 26.62 0 0 1-2.37-1.94 25.94 25.94 0 0 1-2-2.08c-.58-.7-1.12-1.36-1.57-2s-.83-1.27-1.17-1.81-.59-1-.78-1.46a11.6 11.6 0 0 1-.56-1.39z" fill="#231f20"/>
        <ellipse cx="99.07" cy="218.05" rx="3.9" ry="3.92" transform="rotate(-89.27 99.08 218.056)" fill="#a85347"/>
        <ellipse cx="135.42" cy="234.19" rx="3.9" ry="3.92" transform="rotate(-89.27 135.43 234.194)" fill="#a85347"/>
        <path d="M113.85 202.64S132 174 152.5 204.4c0 0-1.84 24.19 4.71 15.76l4-9.26s-1 26.82-10.06 20-5.3-28.9-37.3-28.26zm-9.42 236.13l-17.89 8.82 19.64.24 1.82-2.1 2.26 2.16 16.15.2-13.72-9.21-8.26-.11" fill="#0e0e0e"/>
        <path d="M128.63 218.47c.59-.12 1.2-.24 1.8-.34h.92a6.3 6.3 0 0 1 .93 0l.94.1a4.92 4.92 0 0 1 .93.22 4.49 4.49 0 0 1 .91.31 9 9 0 0 1 .87.44l.8.58.71.7c.22.25.41.52.6.79s.32.57.49.86a9.52 9.52 0 0 1 .65 1.85 7.44 7.44 0 0 1 .17 1 8.09 8.09 0 0 1 .06 1l-.11-.4 1.34 2.18 1.4 2.27-2.37-1.22-2.23-1.14-.38-.2v-2.16l-.14-.83a3.15 3.15 0 0 0-.19-.81l-.26-.79-.37-.73a3.69 3.69 0 0 0-.46-.68l-.25-.33-.3-.29a4.42 4.42 0 0 0-.63-.55 5.21 5.21 0 0 0-.7-.47 7.48 7.48 0 0 0-.76-.39c-.27-.1-.53-.24-.81-.32s-.55-.19-.84-.24-.57-.14-.87-.18a11.15 11.15 0 0 0-1.85-.23zm-9.63-1.38c-.13-.33-.28-.64-.44-1s-.32-.62-.51-.91-.37-.58-.57-.86-.43-.54-.64-.8-.48-.48-.71-.73-.51-.43-.76-.65a6.79 6.79 0 0 0-.83-.54 5.44 5.44 0 0 0-.88-.43c-.15-.06-.3-.14-.45-.19l-.47-.12a4.21 4.21 0 0 0-1-.19l-1-.08-1 .08h-.49l-.48.11-1 .22c-.32.09-.63.23-.94.34l-.94.34-.43.16-.32-.27-2.14-1.79-2-1.72 2.64.41 3 .46-.41.06a9.53 9.53 0 0 1 1.1-.38 8.89 8.89 0 0 1 1.1-.24 11.34 11.34 0 0 1 2.25-.14c.38 0 .76.07 1.13.13s.74.17 1.11.28l1.06.43 1 .59a8.66 8.66 0 0 1 .87.72 4.91 4.91 0 0 1 .75.82 5.9 5.9 0 0 1 .66.88l.53 1a6.64 6.64 0 0 1 .42 1l.38 1c.1.63.25 1.33.41 2.01z" fill="#0e0e0e"/>
        <path d="M134.83 212.75l.35.05a5.19 5.19 0 0 1 1 .25 6.33 6.33 0 0 1 2.46 1.58 6.15 6.15 0 0 1 1.45 2.46 4.67 4.67 0 0 1 .19.92v.35l-.07-.35a4.59 4.59 0 0 0-.27-.88 5.89 5.89 0 0 0-1.61-2.21 5.78 5.78 0 0 0-2.33-1.22 4.33 4.33 0 0 0-.85-.13h-.35zm-16.99-4.55l-.18-.3a4.28 4.28 0 0 0-.51-.69 5.79 5.79 0 0 0-2.19-1.53 6 6 0 0 0-2.71-.4 4.67 4.67 0 0 0-.91.16l-.34.1.33-.13a4.74 4.74 0 0 1 .9-.25 6.22 6.22 0 0 1 2.86.14 6.34 6.34 0 0 1 2.55 1.44 5.14 5.14 0 0 1 .67.74l.21.29z" fill="#231f20"/>
        <path fill="#d12026" d="M109.64 264.3l3.89-4.82 1.6 5.83 3-.69-3.1 8.74 5.12-3.24.42 2.4 4.91.13-2.25 4.86 1.71 1.75-8.42 4.5-.56 2.97-6.71-2.38-1.55 8.31-1.58-.29 1.85-7.89-7.46-.43 1.34-2.9-6.29-7.85 1.97-.98-.16-5 4.53 1.92.89-2.32 4.65 5.05-.41-8.93 2.61 1.26"/>
      </svg>
