    <svg data-name="Layer 1" xmlns="http://www.w3.org/2000/svg" width="339.03" height="354.9" viewBox="0 0 339.03 354.9">
        <title>
          infographicweb
        </title>
        <path d="M248.84 66.15a54.94 54.94 0 0 0-30.14-14.61c-53.75-7.83-232 17-178.58 168 74.46 210.61 248 52.93 248 52.93s52.19-118.61-39.28-206.32z" fill="#91a9a3"/>
        <g data-name="kid left">
          <path d="M124 124.94H79.75s-21.17 22.33-5.39 29.34 5.74 36.35 5.74 36.35h25.83l30.56-33.4c30.57-16.52-12.49-32.29-12.49-32.29z" fill="#a97c50"/>
          <path d="M133.92 142.71s4.33 3.74 8.15-.25 2.48-10.85-.43-13.63c0 0-4-3.05-6.19.19s-1.53 13.69-1.53 13.69z" fill="#a97c50"/>
          <path d="M111.07 132.45l1.88 11.5-7.14 1.62s3.76 8.34 7.14 5.16c0 0 6.52 3.05 7-2.44 0 0 5.39-.31 3.13-2.72s-3.13-1.62-3.13-1.62l-5.24-11.5h-3.66z" fill="#543000" opacity=".65"/>
          <ellipse cx="79.94" cy="145.57" rx="4.2" ry="4.09" fill="#783e39"/>
          <ellipse cx="139.13" cy="147.19" rx="4.2" ry="4.09" fill="#783e39"/>
          <path d="M161.61 119.16L124 124.94s-24-20.41-44.23 0l-7.46 10 56.53-8 32.82-4.66v-3.15z" fill="#783e39"/>
          <path d="M72.25 135.35s-4.21-3.87-8.16 0-2.82 10.77 0 13.64c0 0 3.93 3.17 6.19 0s1.97-13.64 1.97-13.64z" fill="#a97c50"/>
          <path d="M85.93 136.79a19 19 0 0 1 1.64-1.47 18.08 18.08 0 0 1 4.16-2.58 8.33 8.33 0 0 1 2.62-.73 4.39 4.39 0 0 1 1.3.1 4.16 4.16 0 0 1 1.11.41 3.77 3.77 0 0 1 .79.59 3.56 3.56 0 0 1 .48.57 5.09 5.09 0 0 1 .31.55l-.09.07-.5-.34c-.17-.08-.35-.22-.58-.32a5 5 0 0 0-.76-.3 5.9 5.9 0 0 0-2-.17 8.71 8.71 0 0 0-2.38.41 19.83 19.83 0 0 0-4.24 2.07c-1.1.7-1.8 1.23-1.8 1.23zm50.46-6.15s-.73-.42-1.88-.94a18.11 18.11 0 0 0-4.32-1.38 7.77 7.77 0 0 0-2.31 0 7.07 7.07 0 0 0-1 .18 5.59 5.59 0 0 0-.85.32 5.4 5.4 0 0 0-.67.42c-.2.13-.35.29-.5.4s-.42.41-.42.41l-.1-.05a5.65 5.65 0 0 1 .2-.58 3.73 3.73 0 0 1 1-1.32l.45-.32c.17-.09.34-.19.53-.27a4.2 4.2 0 0 1 1.22-.31 7.57 7.57 0 0 1 2.61.29 16.61 16.61 0 0 1 4.33 1.88 17.69 17.69 0 0 1 1.76 1.19z" fill="#231f20"/>
          <ellipse cx="127.03" cy="138.46" rx="4.23" ry="4.12" fill="#372220"/>
          <ellipse cx="96.36" cy="142.01" rx="4.23" ry="4.12" fill="#372220"/>
          <path fill="#f1a13a" d="M107.65 188.7H80.4l-38.3 78.88 67.71 2.93-2.16-81.81"/>
         <g class="mouse-move">
          <path class="mouse" d="M106.11 279.11l43.49 8.14s-11.6-42.7-43.49-8.14z" fill="#fff"/>
          <path class="mouse-hand" d="M112.63 260.42l28.25 3.58 7.38 7.64-1.8 9.2h-4.89l3.09-7.11-3.79-3.12h-5.07l5.07 3.43-4.42 6.8h-4.19l3.54-6.17-5.37-4.06-4.29 1 4.83 3-3.86 6.17h-4.83l3.86-5.86-4.51-3.34-12.56-2.31a4.21 4.21 0 0 1 0-5l-23.51-3.93 4.19-5.48z" fill="#a97c50"/>
        </g>
        </g>
        <path d="M82.7 146.13s19.12 34.87 53.72 2.54c0 0-34.55 17.09-53.72-2.54z" fill="#fff"/>
        <path class="letter-a" d="M136.23 86.93Q148.61 62.79 163 39.7a286.78 286.78 0 0 1 6.63 54.61m-24.2-22.86a75.57 75.57 0 0 1 29.09-4.28m24.54-15.96l-2.69 22.47m-13.43-11.39l23.15 3.78" fill="none" stroke="#f5f0e7" stroke-linecap="square" stroke-miterlimit="10" stroke-width="8"/>
        <g data-name="kid right">
          <path d="M245.81 132.16l-5-27-45.28 9.4-2.19 22s-9.25 7.55 0 18.24 22.35 26.42 22.35 26.42l24.09-5s0-22 10.17-27c-.05-.07 7.49-10.77-4.14-17.06z" fill="#f2cfa0"/>
          <path d="M230.72 147.83a26.9 26.9 0 0 1-4.27 6.36c-5 5.43-14 9.84-25.9-8a27 27 0 0 0 4.76 2.66c5.5 2.46 15.13 4.9 25.41-1.02z"/>
          <path d="M230.72 147.83a26.9 26.9 0 0 1-4.27 6.36c-5 5.43-14 9.84-25.9-8a27 27 0 0 0 4.76 2.66c5.5 2.46 15.13 4.9 25.41-1.02z" fill="#d12026"/>
          <path d="M230.72 147.83a26.9 26.9 0 0 1-4.27 6.36 32.67 32.67 0 0 1-21.78-2.87l.64-2.46c5.5 2.45 15.13 4.89 25.41-1.03z" fill="#fff"/>
          <path d="M210.07 138.29v4.87s-3.67 1.6 0 1.7c0 0 3.84 2.46 7.13-.49 0 0 5.36-1.67.69-2.31l-.17-8.47h-8.48z" fill="#eeac92"/>
          <path d="M206.14 130.87s-8.3-1.54-11.25 3.36c0-.01 1.93-8.11 11.25-3.36zm15.2-4.13s13.47-2.72 15.21 4.42c0-.01.11-10.39-15.21-4.42z" fill="#231f20"/>
          <ellipse cx="195.32" cy="145.83" rx="3.89" ry="3.8" fill="#eeac92"/>
          <ellipse cx="235.72" cy="146.06" rx="4.46" ry="4.34" fill="#eeac92"/>
          <path d="M232.41 102.56s-39 2.52-46.09 13.84.69 23 .69 23 47.19-21.7 49.07-31.14l10.28 43.25 7-17.89s9.64-23.51-20.95-31.06z" fill="#231f20"/>
          <ellipse cx="203.21" cy="135.69" rx="3.99" ry="3.89" fill="#372220"/>
          <ellipse cx="227.27" cy="135.69" rx="3.99" ry="3.89" fill="#372220"/>
        </g>
        <path fill="#a7a9ac" d="M250.15 321h-54.12v-12.51l19.26-2.13-1.26-42.92 23.7-.15-1.5 40.76 9.64-.94 4.28 17.89"/>
        <path class="monitor" fill="#e0e1e2" d="M135.07 186.63l13.99 117.88 149.06-20.98 13.93-115.77-176.98 18.87"/>
      </svg>
