      <svg class="parent-drugs" data-name="nodrugs" xmlns="http://www.w3.org/2000/svg" width="256.81" height="279.59" viewBox="0 0 256.81 279.59">
        <title>
          infographicweb
        </title>
        <path class="bg-drugs" d="M71.11 64.07a40.47 40.47 0 0 1 21.11-13c39.07-9.76 172.63-4.62 145.12 110.76-38.38 161-179 57.45-179 57.45S10.48 135.59 71.11 64.07z" fill="#91a9a3"/>
        <g class="the-drugs" data-name="drugkid">
          <path fill="#bcbec0" d="M229.89 119.36l3.55-35.16-.4-4.06-5.06 40.16 1.91-.94"/>
          <path d="M232.34 177.72l5-53.7s-9.22-9.72-19.79-1.85l-5.36 57.28 11.78-1zm-2.92 20.67l2.27 6.34-22.39-2.95.78-5.93 7.75 1.01 2.36-17.94 3.26.42-1.23 18.1 7.2.95" fill="#fff"/>
          <path d="M220.33 124.11A9.35 9.35 0 0 1 233 125.5l-1.26 33-13.88-1z" fill="#dab584"/>
          <path fill="#231f20" stroke="#ea1c2d" stroke-miterlimit="10" stroke-width=".27" d="M234.57 136.31l-8.82-4-1.35 2.57 10.17 1.43zm.67 6.81l-8.82-4-1.35 2.57 10.17 1.43zm-.6 7.16l-8.82-4-1.35 2.57 10.17 1.43z"/>
          <path d="M185 132.37l-4.27-8.43s-.61-7.57 6.55-3.9l3 6.25z" fill="#f1a13a"/>
          <path d="M188.39 139s6.65 2 6.29-4.78l-4.38-7.91-5.3 6.06z" fill="#fff"/>
          <path d="M209.56 153.89l3.21-12s-1.24-9.87-9.46-3.24l-2.2 8.82z" fill="#f1a13a"/>
          <path d="M207 163.27s-8 4.3-9.36-4.44l3.5-11.31 8.45 6.37z" fill="#fff"/>
          <path d="M178.17 54.55l12.25-3.66.42 4.05-2 .21 9.7 17.78 5.86 3.83 11.27 33.07s-9.57 9.64-19.43 6.8l-10.66-33.48 1.86-8.39-5.64-18.2-3.31 1z" fill="#a97c50"/>
          <path d="M213.18 216.91s0-3.64 3-3.49a2.55 2.55 0 0 1 2.65 2.9 3.51 3.51 0 0 1-2.53 3.1c-2.36.68-3.12-2.51-3.12-2.51zm-15.42 19.41s.06-4.39 3.68-4.21a3.08 3.08 0 0 1 3.19 3.5 4.24 4.24 0 0 1-3.05 3.74c-2.91.81-3.82-3.03-3.82-3.03zm-4.3-32.72s.06-4.33 3.63-4.15a3 3 0 0 1 3.15 3.45 4.18 4.18 0 0 1-3 3.69c-2.88.8-3.78-2.99-3.78-2.99zm6.39 18.99s.07-5.23 4.38-5a3.66 3.66 0 0 1 3.8 4.16 5 5 0 0 1-3.63 4.45c-3.47.96-4.55-3.61-4.55-3.61zm-6.13-49.11l-3.87-19.21s-3.94-3.62-6.58-.42L194 183.67l3-2.57z" fill="#fff"/>
          <path d="M202.07 189.81L197 181.1l-3 2.57 3.73 9.85s4.11 2.15 4.34-3.71z" fill="#a97c50"/>
        </g>
        <path d="M97.16 109.39l.27-12.17L69 100.16l-1.28 13.59c-11.5 3.18-1.61 12.34-.23 13.56l-.15 15.47 14.29 29.92 14.17-1.47 1.07-48.58c2.13-1.73 10.93-9.76.29-13.26z" fill="#dca871"/>
        <path d="M82.72 116.43s4.35 13.51 8.13-.84c0-.01-2.59 20.21-8.13.84zm-3.18 1.36s-4.61 13.42-8.08-1c-.01 0 2.17 20.21 8.08 1z" fill="#231f20"/>
        <path d="M79.82 114.07l-2.49 14.52s-5.43.63.48 4.6c0 0 7-.72 5.51-4.56l-1.93-19.74-2.08.22z" fill="#c27e5d"/>
        <path d="M76.75 111s-4.38-2.54-7 4c.04 0 4.25-4.75 7-4zm6.86-1.19s2.49-3.25 5.35 2.77c.04 0-3.64-3.95-5.35-2.77z" fill="#231f20"/>
        <path d="M111.25 169.17c2.89-1.2 58-6.06 58-6.06v-24.4l3.75-.39.25 28.44-4.73 1.59-58.44 13.17z" fill="#dca871"/>
        <path d="M76.57 169.05L76 200.33s-.77 16.17 6.55 40.89L123 237s-20.42-26.17-18.44-49.78l18.35-8.86-1.45-14z" fill="#372220"/>
        <path d="M67 98.68s-9.58-4.7-6-10.13l13.85 9.32s-4.11-4.63-2.86-10.46c0 0 1.53 11.23 5.33 10.2s20.78-7.52 20.78-7.52l-.41 17.13-4.41-8.73-24.84 3.76zm8.17 44.4s11.82-1 16.72-11.89c0 0-.95 11.81-16.72 11.89z" fill="#231f20"/>
        <circle cx="72.98" cy="142.1" r="2.99" transform="rotate(-5.92 72.935 142.03)" fill="#c27e5d"/>
        <circle cx="92.7" cy="128.44" r="2.99" transform="rotate(-5.92 92.648 128.312)" fill="#c27e5d"/>
        <path d="M65.2 181s-32.53 18.63.15 48.86l16.54 5.94-2.41-11.6h-11s-26.11-23.93 1.23-31z" fill="#dca871"/>
        <path fill="#372220" d="M77.56 168.54L59.47 181.2l11 12.6 9.6-.99-2.51-24.27"/>
        <path class="drug-x" fill="#d12026" d="M165.7 43L165.7 43c-1.33 2.11-3.3 5.07-5.54 8.71l-15.23 24.56q-1.15-1-2.32-2c-1.65-1.34-3.29-2.69-5-3.93l-1.25-.95c-.44-.29-.86-.59-1.28-.89-.85-.6-1.67-1.21-2.54-1.74-1.67-1.15-3.39-2.16-5-3.14s-3.27-1.82-4.8-2.61-3-1.44-4.33-2-2.56-1-3.6-1.43-1.92-.63-2.49-.82-.93-.25-.93-.25l-.82.72 2 2.36c.61.75 1.39 1.66 2.28 2.68s1.9 2.2 3 3.41 2.39 2.55 3.72 3.93 2.78 2.8 4.29 4.26 3.1 2.92 4.76 4.38 3.34 2.92 5 4.38c1.23 1 2.45 2 3.67 2.94l-11.71 19.63c-2.2 3.66-3.94 6.77-5.2 8.92l-2 3.39.93.57s.36-.2 1-.6 1.55-1 2.63-1.78a81.84 81.84 0 0 0 8.35-7c1.6-1.53 3.27-3.22 5-5.05s3.4-3.82 5.06-5.92c.86-1 1.68-2.13 2.5-3.24q1-1.28 1.9-2.61c1.11.78 2.2 1.54 3.27 2.24 1.6 1.06 3.11 2.06 4.54 2.95s2.73 1.69 3.91 2.37 2.2 1.29 3.05 1.76l2.68 1.5.55-.94s-.13-.32-.42-.86-.68-1.36-1.25-2.28-1.25-2-2.05-3.27-1.75-2.51-2.78-3.9-2.19-2.8-3.44-4.24c-.92-1-1.87-2.11-2.87-3.17 1.44-2.46 2.91-4.9 4.19-7.4l1-1.85.87-1.93c.6-1.24 1.21-2.46 1.73-3.7 1.11-2.45 2.07-4.88 2.94-7.22s1.59-4.6 2.22-6.72 1.12-4.11 1.51-5.91.68-3.39.87-4.73.28-2.43.37-3.16.08-1.15.08-1.15z"/>
        <path class="maple-drug" fill="#d12026" d="M90.08 190.5l-2.22-3.2-1.26 3.59-1.84-.57 1.54 5.63-3.05-2.27-.37 1.49-3.07-.14 1.19 3.15-1.15 1.02 5.04 3.21.22 1.89 4.29-1.2.59 5.29 1-.11-.8-5.04 4.67.07-.7-1.87 4.28-4.65-1.18-.7.33-3.14-2.92 1.01-.44-1.5-3.14 2.96.66-5.59-1.67.67z" />
      </svg>
