<svg class="hockey" data-name="hockey-girl" xmlns="http://www.w3.org/2000/svg" width="309.03" height="418.09" viewBox="0 0 309.03 418.09">
        <title>
          infographicweb
        </title>
        <path class="hockey-bg hockey" d="M289.26 238.21a50.55 50.55 0 0 1-9.18 29.42c-28.59 41-157.47 144.88-225.14 14C-39.46 99.1 175.6 82 175.6 82S288 121.62 289.26 238.21z" fill="#91a9a3"/>
        <path class="blade" d="M83.2 375.5v-9.67l9.8 4.47h9.62L98 375.5s-9.6 3.5-14.8 0z" fill="#a7a9ac"/>
        <path class="skate" d="M86.53 358s-14.43 2.93-7 9.71 23.47 5.81 23.47 5.81l5.59-12.52-4.32-12.95z" fill="#231f20"/>
        <path class="hockey-pants" fill="#d12026" d="M193.12 261.51L105 277.91l13.07 26.54 74.1-5.65.95-37.29"/>
        <path class="hockey-shirt" d="M211.23 222.22c.41.77.81 1.55 1.22 2.34l-15.26 58.91L126 271.71l-5.61-65.12s32.16-48.09 68.8-14.73c5.33 2 33.24 11.68 46.41 1.19l14.51 12.86s-15.01 12.64-38.88 16.31z" fill="#dab584"/>
        <path class="hockey-glove-r" d="M277.85 182.15l-9.16 11.18a14.72 14.72 0 0 1-2.71 2.57l-3.4 14.19-36.19-8.67 7.83-14.42a15.07 15.07 0 0 1-.68-12l5-12.81c3.34-8.55 14.39-12.21 24.71-8.19l4.17 1.62c12.29 4.78 17.46 17.94 10.43 26.53z" fill="#783e39"/>
        <path class="hockey-leaf" fill="#d12026" d="M163.97 212.54l6.34-7.71 2.47 9.45 4.83-1.07-5.14 14.09 8.29-5.16.62 3.9 7.89.29-3.7 7.83 2.72 2.85-13.61 7.13-.94 4.8-10.75-3.97-2.64 13.41-2.53-.5 3.12-12.73-11.98-.83 2.2-4.65-9.96-12.81 3.17-1.56-.17-8.09 7.25 3.19 1.47-3.74 7.38 8.25-.49-14.44 4.16 2.07"/>
        <path fill="#783e39" d="M92.13 245.17L72.89 352.55l53.55 12.05 10.18-119.97-44.49.54m86.05 16.44l38.99-21.15 49.17 107.65-56.15 15.23-32.01-101.73"/>
        <path d="M79.51 190.6l59.31 71.87-4.29 9.8 60.33 95s4.47 25.34 87.91 7L278 348l-60.85 9-63.75-101.48-7.4 2.34L82.47 185z" fill="#372220"/>
        <path fill="#783e39" d="M70.44 208.06l41.27 32.44 28.98-36.87-26.37-25-43.88 29.43"/>
        <path class="puck" d="M268.23 134.48v-.07c0-2.69-6.16-4.95-13.83-5s-13.91 2-13.94 4.71v5.04c0 2.69 6.16 4.95 13.83 5s13.91-2 13.94-4.71v-4.97z" fill="#231f20"/>
        <path d="M195.28 147.44s-11.31.83-16.07 43.8L155 189.7s-3.31-39.22-8.77-42.31 23.46-46.5 49.05.05z" fill="#f1b881"/>
        <path d="M170.07 138.93l-3.38 8.79s-4.83 1.09.6 3.67c0 0 2 2.8 3.32-.54 0 0 3.94-1.82.33-3.3l1.91-10.66z" fill="#d7624b"/>
        <ellipse class="hockey-eyes" cx="160.12" cy="145.64" rx="2.66" ry="2.79" transform="rotate(-9.23 160.19 145.663)" fill="#266791"/>
        <ellipse class="hockey-eyes" cx="177.66" cy="147.12" rx="2.37" ry="2.48" transform="rotate(-9.23 177.713 147.14)" fill="#266791"/>
        <path d="M156.42 151.61s16.23 7.9 28 .74c-.04 0-26.5 32.83-28-.74z" fill="#d12026"/>
        <path d="M197.19 142.88a28.24 28.24 0 0 0-2.77-1L193 156.16l-6.87-2.16.28-8.35s-19.84-11.18-34.82-2.45l-.73 7.94-8.55 3.08-.68-10.75c-1.29.38-2.6.78-3.92 1.22l-1.24-3.48 3.57-4s.39-.28 1.15-.73l-.19-2.42 19.57-17.8s14.75-2.39 21.35 2.6l13.45 13-.19 2c1.42.5 2.85 1 4.31 1.64z" fill="#372220"/>
        <path d="M156.09 151.67a3.3 3.3 0 1 1-3.78-2.73 3.3 3.3 0 0 1 3.78 2.73zm31.61.5a3.3 3.3 0 1 1-3.78-2.73 3.3 3.3 0 0 1 3.78 2.73z" fill="#d7624b"/>
        <path d="M193.12 156.23s8-6.76 11.64 4.48c.01-.01-6.13 4.17-11.64-4.48zm12.32 2.31s9.59-4.2 9.89 7.61c0-.01-7.08 2.25-9.89-7.61zm9.93 4.21s6.54 8.26 12.33-2.32c0 0-5.22-5.34-12.33 2.32zm-72.56-8.32s-10.62-3.73-10.7 8.11c.01-.01 7.83 1.91 10.7-8.11zm-11.61 2.47s-10.17-4.61-11.43 7.21c.01 0 7.58 2.56 11.43-7.21zm-11.51 4.63s-7.49-8.6-13.07 1.81c0 .01 5.91 5.6 13.07-1.81zm107.78-2.92s9-.66 7.1-9.47c.01 0 9.62 18.28-7.1 9.47zm-120.22.78S99 156 103.56 148.22c0 0-14.76 14.4 3.69 11.17z" fill="#f15a29"/>
        <path d="M157.83 157.45l-.83-4.15a.41.41 0 0 1 .52-.47l8 2.41a.41.41 0 0 1 .22.62l-2.16 3.14a.41.41 0 0 1-.45.16l-5-1.44a.41.41 0 0 1-.3-.27zm21.99-2.13l-1.47 2.49c-1.34 1.78-1.84 2.69-4 2.29l-4.32-.62.89-3.17z" fill="#fff"/>
        <path d="M157.75 170.62s5.2 6.9 16.27 4z" fill="#d7624b"/>
        <path d="M168.43 165.42l-10.06-3.77s3.26 6.02 10.06 3.77z" fill="#fff"/>
        <path d="M143.4 151s12.7 94.93 48.8 9.4c0-.05-30.56 68.51-48.8-9.4z" fill="#58595b"/>
        <path class="hockey-swoosh" d="M250.55 124.18c-13.61-16.67-30.92-33-49.73-43.74a36.73 36.73 0 0 0-5.16-2.44 36.15 36.15 0 0 0-5.48-12c-11.63-16.8-32.53-27.49-51.62-33.26a104 104 0 0 0-34-4.55c-9.83.37-23.85 2.88-31.25 9.89a1.09 1.09 0 0 0 .76 1.84c7.18.34 14.49-1.77 21.73-1.9a133.73 133.73 0 0 1 22.51 1.29 125.72 125.72 0 0 1 42.87 15c7.88 4.44 21.38 12.14 26.14 22.05a12.54 12.54 0 0 0-9.32 3.79c-4 4.16-5.51 11.54-1.12 16 5.68 5.74 14.69 1.72 17.75-4.64a18.1 18.1 0 0 0 1.71-8.26 78.89 78.89 0 0 1 9.15 6.07c15.35 11.15 28.87 24.38 41.36 38.61 2.25 2.53 5.81-1.17 3.7-3.75zm-62-36.8c-.85 3.19-6.65 8.41-9 3.37-1.19-2.52.75-6.33 2.6-8a8.52 8.52 0 0 1 6.67-2.09 14.9 14.9 0 0 1-.26 6.72z" fill="#fff"/>
      </svg>
