<svg class="thumbhover" data-name="thumb" xmlns="http://www.w3.org/2000/svg" width="268" height="257.03" viewBox="0 0 268 257.03">
        <title>
          infographicweb
        </title>
        <path d="M66.29 33A41 41 0 0 1 88.8 22.1c40.14-5.85 173.2 12.72 133.38 125.47-55.61 157.3-185.24 39.53-185.24 39.53S-2 98.52 66.29 33z" fill="#91a9a3"/>
        <path d="M182.34 98.12a37.85 37.85 0 0 0-6.71-5.57l-5.47-2-1.27-.45-37.71-13.54-.48-.17-2.52-.91a96.74 96.74 0 0 0-16 1.93c-34 7.42-17.06 32-17.06 32l13.32 15.45 2.27 2.64 18.12 21.5 5.09 6 6.47 2.27 6.31-3.56 21.09-11.91c30.98-18.8 22.49-35.39 14.55-43.68zm-76 11c-.29-.39-.45-.62-.49-.68l.77.66a60.44 60.44 0 0 0 20.51 11.42 56.71 56.71 0 0 0 23.26 2.22 63.52 63.52 0 0 0 17.52-4.49l.93-.4a5.93 5.93 0 0 0 .67.55c-.4.35-.8.68-1.2 1-32.31 26.73-58.08-5.11-61.94-10.3z" fill="#f1b881"/>
        <path d="M168.34 119.39c-32.34 26.74-58.11-5.1-62-10.29-.29-.39-.45-.62-.49-.68l.77.66a60.44 60.44 0 0 0 20.51 11.42 56.71 56.71 0 0 0 23.26 2.22 63.52 63.52 0 0 0 17.52-4.49 5.89 5.89 0 0 0 .43 1.16z" fill="#d12026"/>
        <path d="M181.21 119.38a7.07 7.07 0 0 1-9.37 3.5 6.84 6.84 0 0 1-2.3-1.68l-.07-.07a5.91 5.91 0 0 1-.53-.68 7.39 7.39 0 0 1-.6-1.06 5.89 5.89 0 0 1-.4-1.16 6.18 6.18 0 0 1-.2-1 7.07 7.07 0 1 1 13.47 2.15zM99.57 97.63a7.08 7.08 0 0 0 5.46 9.95h.29a7.08 7.08 0 1 0-5.75-9.95z" fill="#d3836c"/>
        <path d="M165.81 108.78s-20.27 18.72-15-10.94c-.03 0-4.41 23.56 15 10.94zm-44.56-19.21s-.84 27.58 18.12 4.17c-.01 0-14.92 18.75-18.12-4.17z" fill="#231f20"/>
        <path d="M136.34 90.63s-9.6-9-18.83-6.08c0 0 10.77.74 18.83 6.08zm32.08 15.14s-7.6-10.71-17.22-9.74c-.01-.03 10.4 2.89 17.22 9.74z" fill="#a97c50"/>
        <path d="M131.22 108.84s2.1-11.93 13.35 3.83z" fill="#cf955e"/>
        <path d="M203.9 90.06a6 6 0 0 1 4.92 1c-12.92-10-23 10.09-23 10.09s8.78-5 11.6-6.52 9.19 9.19 9.19 9.19a16.83 16.83 0 0 0-2.5-8.73c1.91 1.32 5.08 3.07 5.08 3.07.58-7.16-5.29-8.1-5.29-8.1zm-23.2-7.75l-51.4-16.76s-11 1.87-12.07 7.64l-4 1.77c1.5-4.65 5.24-20.18-10.17-23.68a7.66 7.66 0 0 1 4.62 3.37 8.16 8.16 0 0 0-10.68.82s3.88 1.47 6.43 2.18a17.75 17.75 0 0 0-9 3.49S108 59.55 109 62.77c.79 2.61 2.75 9.85 3.47 12.51l-4.1 1.8 10 .85A15.25 15.25 0 0 0 119.9 80l8.77 2.72s-2.29-4.44 3.21-7c0 0-4.53 4.77-1.27 7.37l40.85 15s-4.14-6.14-2.06-9.61a3.67 3.67 0 0 1 .31-.43c.09.69 1.22 8.68 3.64 9.78l5.27 1.85a15.68 15.68 0 0 0 2.86-2.33l4.34 3.76-1.76-7.56c1.21-2.94 1.04-6.81-3.36-11.24zm-10.85 5.58a4.05 4.05 0 0 1 .84-.7c4.18-2.58.05.12-.84.7z" fill="#783e39"/>
        <path d="M180.35 176.95a29.57 29.57 0 0 1-3.05 3.39c-.64-1.14-1.08-1.79-1.08-1.79s-22-1.29-12.16 8c.08.07.15.15.22.22a11.26 11.26 0 0 1-3.4-.43c-2.66-.73-6.88 8.34-8.88 17.78-1 .92-.82 1.85-1 2.77s0 1.73-1 2.58c0 2.76-.91 5.4-1.18 7.65l-48.33-4.11s6.48-22.31 3.57-38.68c-1.6-9-6-16.28-16-16.92l.38-2.82L90 142.93l.41-3.13 23.59 5.63 9.34 2.23 5.5 1.31 1.42.34s5.29 10.62 15 3.87a2.55 2.55 0 0 1 1.47.55c.76.4 1.79 1 3 1.79 1 .64 2.16 1.39 3.4 2.21 10.34 6.91 27.22 19.22 27.22 19.22z" fill="#d12026"/>
        <path d="M153.1 157.73l-2.38 26.87 1.28 19.56v3.12l.56 10.82.17 3.59-54.2-5.45 5.56-41.86.64-4.82 9.27-24.13.11-.3 9.25 2.42v.11l-3.32 22 23.25 3.66s5.07-13.72 6.44-17.82a5.8 5.8 0 0 0 .34-1.14c-.18-.1 3.33.44 3.33.44z" fill="#dab584"/>
        <path fill="#ba8f55" d="M130.41 185.27l-.42-5.17-3.85 3.3-1.75-1.89-1.98 7.53-2-4.66-1.43 1.48-3.45-2.21-.74 4.43-2 .41 3.68 7.07-1.02 2.33 5.76 1.49-2.85 6.5 1.23.54 2.44-6.35 5.36 3.2.44-2.64 8.04-2.51-.89-1.6 2.47-3.4-4.03-.79.48-2.03-5.59 1.33 4.49-6.01-2.39-.35"/>
        <path d="M156.55 213.71l-3.38 9-.66-4.65-.63-10.82 4 1.53s15.71-11.25 9.79-20.34a10.25 10.25 0 0 0-1.37-1.67c-.07-.07-.14-.15-.22-.22-9.81-9.33 12.16-8 12.16-8s.44.65 1.08 1.79c4.13 7.24 16.92 33.99-20.77 33.38zm-4.04 4.4l-1.19-7.15-1.32-1.43v-.01l-3.04-4.06 3.93 1.48.95.35.67 10.82M74 132.49c1.36 5.18 4.17 10.78 10 10.92a10.75 10.75 0 0 0 2.45-.24 10 10 0 0 1 3.5-.24l-1.55 11.71c-1.18 1.81-2.18 3.1-2.18 3.1s-37.67-.51-21.95-29.6a70 70 0 0 1-8-20.87 7.21 7.21 0 0 1 2-6.53l5.6-5.55c-3.93-14.33-16.49-33-16.08-33.08C72.51 56.17 76.64 70.67 76 83.58a7.21 7.21 0 0 1 10.58 6.85v.31a7.49 7.49 0 0 0 1.08 4.67c1.62 2.59 3.86 7.07 2.88 10.75a7 7 0 0 0 .69 5.53c1.59 2.54 2.92 6.32-.33 9.38-.05 0-7.25 9.02-16.9 11.42z" fill="#f1b881"/>
        <g class="thumb-print" fill="#372220">
          <path d="M64.61 79.38a8.14 8.14 0 0 0 1.62.17 7.33 7.33 0 0 0 1.56-.15c.28 0 .55-.16.84-.22a8.22 8.22 0 0 0 .83-.34 6.31 6.31 0 0 0 .8-.42c.24-.18.53-.29.75-.48l.69-.5c.2-.18.41-.34.6-.49.39-.3.67-.59.91-.77l.37-.29s-.06.16-.18.43a6.35 6.35 0 0 1-.59 1.09 7 7 0 0 1-1.14 1.35 5.46 5.46 0 0 1-.79.64 7.16 7.16 0 0 1-.92.53 9.25 9.25 0 0 1-1 .36 5.56 5.56 0 0 1-1 .15 4.9 4.9 0 0 1-1.8-.21 3.61 3.61 0 0 1-1.55-.85zm9.34-12.72a26.87 26.87 0 0 0-2.18-2.81c-.37-.38-.77-.85-1.18-1.23s-.91-.84-1.4-1.26-1.07-.78-1.61-1.17a13 13 0 0 0-1.8-1l-.94-.41-1-.27a10.59 10.59 0 0 0-1.93-.37l-.47-.07h-1.37a9.12 9.12 0 0 0-1.68.14 10.23 10.23 0 0 0-1.42.23l-1.09.28-1 .22.88-.45 1-.49a7.66 7.66 0 0 1 1.42-.46 7.52 7.52 0 0 1 1.82-.32 9.3 9.3 0 0 1 2-.09 9.47 9.47 0 0 1 2.14.3l1.08.28 1 .43a14.16 14.16 0 0 1 1.95 1.08 16.24 16.24 0 0 1 1.67 1.35 13.15 13.15 0 0 1 1.4 1.43 14.74 14.74 0 0 1 1.07 1.41 13.67 13.67 0 0 1 1.64 3.25z"/>
          <path d="M71.45 66.34s-.91-1-2.35-2.26A30.23 30.23 0 0 0 66.54 62a14.47 14.47 0 0 0-3.21-1.78 8.18 8.18 0 0 0-1.75-.49 7 7 0 0 0-1.73 0 7.24 7.24 0 0 0-1.59.36 9.44 9.44 0 0 0-1.35.66 12.3 12.3 0 0 0-1.07.74c-.29.26-.59.45-.78.66l-.67.61.49-.76a8.53 8.53 0 0 1 .65-.83 8.24 8.24 0 0 1 1-1c.2-.15.41-.32.64-.48l.75-.43a6.61 6.61 0 0 1 1.8-.58 7.59 7.59 0 0 1 4.05.47 11.77 11.77 0 0 1 1.83.92 13.92 13.92 0 0 1 1.59 1.14 17.61 17.61 0 0 1 2.41 2.43 15.33 15.33 0 0 1 1.85 2.7zm-18.04-6.15a18.86 18.86 0 0 0-.86 2.35c-.1.36-.21.74-.3 1.15s-.15.84-.25 1.31-.09.91-.1 1.38a7.67 7.67 0 0 0 .1 1.38 7.28 7.28 0 0 0 .25 1.38 11.08 11.08 0 0 0 .42 1.3c.15.42.39.79.56 1.17a8.69 8.69 0 0 0 .61 1 7.94 7.94 0 0 0 .57.84l.49.62.42.57-.58-.39-.66-.48a5.17 5.17 0 0 1-.77-.72 6 6 0 0 1-.83-1 9 9 0 0 1-.76-1.21 8.71 8.71 0 0 1-.9-3 8.81 8.81 0 0 1 0-1.59 10.23 10.23 0 0 1 .18-1.46 10.52 10.52 0 0 1 .94-2.51 8.07 8.07 0 0 1 1.47-2.09z"/>
          <path d="M65.35 63.65a3.11 3.11 0 0 0-.89-1 6.3 6.3 0 0 0-3.21-1.16 7.87 7.87 0 0 0-1.07-.07h-.61a3.55 3.55 0 0 0-.52.14 5.46 5.46 0 0 0-2 1.27A8 8 0 0 0 55.41 65a7.17 7.17 0 0 0-.85 2.57 5.32 5.32 0 0 0 .21 2.62 6.52 6.52 0 0 0 .54 1.17 7.13 7.13 0 0 0 .8 1c1.39 1.22 2.66 2.38 3.74 3.4s2 1.88 2.58 2.48 1 1 1 1-.41-.28-1.11-.78-1.7-1.23-2.88-2.13-2.54-2-4-3.11a3.57 3.57 0 0 1-.31-.26l-.25-.29-.49-.67a6.29 6.29 0 0 1-.71-1.41 6.47 6.47 0 0 1-.3-3.17 8.79 8.79 0 0 1 2.93-5.3 5.91 5.91 0 0 1 2.54-1.35 5 5 0 0 1 .7-.12h.61a8 8 0 0 1 1.22.19 6.33 6.33 0 0 1 3.25 1.67 3.33 3.33 0 0 1 .6.83 1.83 1.83 0 0 1 .12.31z"/>
          <path d="M65.35 70.72A2.29 2.29 0 0 1 66 71a2.83 2.83 0 0 1 1.24 1.37 3.54 3.54 0 0 1 .18.61.79.79 0 0 1 0 .25.58.58 0 0 1-.28.42.79.79 0 0 1-.65 0 4.92 4.92 0 0 1-1.24-.71 22.35 22.35 0 0 1-2.17-1.84l-1-1-.48-.51c-.07-.08-.16-.17-.26-.3a1.27 1.27 0 0 1-.24-.53 1.29 1.29 0 0 1 .23-1 1.43 1.43 0 0 1 .13-.16 1.47 1.47 0 0 1 .54-.39 2 2 0 0 1 1.39.08 5.19 5.19 0 0 1 1.53 1c.32.28.49.46.49.46l-.61-.26a7.48 7.48 0 0 0-1.58-.5 1.44 1.44 0 0 0-.87.09.48.48 0 0 0-.26.5.19.19 0 0 0 0 .07l.21.2.5.47 1 1c.67.66 1.36 1.3 2 1.88a6.56 6.56 0 0 0 .9.7c.05 0 .11 0-.07.07a.26.26 0 0 0-.13.19c0 .1 0-.1 0 0a2.82 2.82 0 0 0 0-.48 2.94 2.94 0 0 0-.73-1.39 3.08 3.08 0 0 0-.42-.57z"/>
          <path d="M67 69.47l.4.63a17.12 17.12 0 0 1 .94 1.9 9.07 9.07 0 0 1 .48 1.42 3.44 3.44 0 0 1 .1.88 1.18 1.18 0 0 1-.43 1 1.56 1.56 0 0 1-1.09.2 5.27 5.27 0 0 1-1-.27 13.55 13.55 0 0 1-2-1c-.67-.39-1.35-.82-2-1.29a16.13 16.13 0 0 1-2.08-1.58 7.66 7.66 0 0 1-1.79-2.23 3 3 0 0 1-.33-1.62 2.52 2.52 0 0 1 .84-1.52 2.32 2.32 0 0 1 .37-.31l.31-.18a2.75 2.75 0 0 1 .78-.31 4.26 4.26 0 0 1 1.57-.19 9.3 9.3 0 0 1 3 1 20.34 20.34 0 0 1 2.63 1.7 21.41 21.41 0 0 1 2.43 2 6.52 6.52 0 0 1 .87 1.53 9.34 9.34 0 0 1 .47 1.56 5.93 5.93 0 0 1-.16 3.31 3.81 3.81 0 0 1-2.53 2.19 6.21 6.21 0 0 1-.82.19 1.82 1.82 0 0 1-1-.18l-1.29-.67a37 37 0 0 1-4.71-3 14.43 14.43 0 0 1-3.58-3.56 5.3 5.3 0 0 1-.68-2.2 11.82 11.82 0 0 1-.13-2 2.92 2.92 0 0 1 .55-1.74 2.7 2.7 0 0 1 1.3-.82 7.79 7.79 0 0 1 2.07-.25h.73l-.73.06a8.62 8.62 0 0 0-2 .41 2.42 2.42 0 0 0-1.11.8 2.55 2.55 0 0 0-.38 1.55 11.32 11.32 0 0 0 .25 1.91 4.84 4.84 0 0 0 .68 1.93 13.76 13.76 0 0 0 3.52 3.21 48.66 48.66 0 0 0 4.69 2.77l1.28.64a.76.76 0 0 0 .43.07c.15 0 .4-.11.6-.16a2.7 2.7 0 0 0 1.81-1.57 4.84 4.84 0 0 0 .05-2.68 8.17 8.17 0 0 0-.43-1.35 6.63 6.63 0 0 0-.63-1.15 22.23 22.23 0 0 0-4.71-3.5c-1.67-.89-3.66-1.49-4.89-.36a1.49 1.49 0 0 0-.53.89 2.25 2.25 0 0 0 .21 1.08 6.8 6.8 0 0 0 1.5 2 15.34 15.34 0 0 0 1.92 1.58c.66.49 1.31.93 1.94 1.34a14.93 14.93 0 0 0 1.88 1 2.14 2.14 0 0 0 1.67.25 1.48 1.48 0 0 0 .26-1.41 8.8 8.8 0 0 0-.37-1.4 19.56 19.56 0 0 0-1.13-2.5z"/>
          <path d="M68 65.33a15 15 0 0 1 1.89 1.51 20.78 20.78 0 0 1 1.72 1.78 19.76 19.76 0 0 1 1.71 2.29c.25.42.5.85.71 1.29a8.84 8.84 0 0 1 .54 1.35 4.57 4.57 0 0 1 .14 2.64 3.35 3.35 0 0 1-.22.54c-.1.15-.2.3-.31.42l-.33.3-.32.19a2.15 2.15 0 0 1-.46.19l-.07.05.13-.11a3.07 3.07 0 0 0 .35-.33l.22-.25.2-.32a2.39 2.39 0 0 0 .17-.87 3.59 3.59 0 0 0-.07-1 7.15 7.15 0 0 0-.37-1.13 16.93 16.93 0 0 0-1.27-2.36c-1-1.57-2.11-3.09-2.93-4.25S68 65.33 68 65.33zM57.31 77s1.05.67 2.65 1.57c.8.44 1.75.94 2.78 1.4a20.66 20.66 0 0 0 3.26 1.2 12.36 12.36 0 0 0 1.72.35 11.69 11.69 0 0 0 1.68.11 9.61 9.61 0 0 0 1.6-.15 5.52 5.52 0 0 0 .71-.17 4.78 4.78 0 0 0 .66-.2 10.27 10.27 0 0 0 2-1l.63-.43-.56.66c-.19.19-.44.43-.73.68a7.52 7.52 0 0 1-1.09.72 6.65 6.65 0 0 1-1.44.61 7.75 7.75 0 0 1-1.73.34 9.5 9.5 0 0 1-1.88 0 13.21 13.21 0 0 1-1.89-.35 17.67 17.67 0 0 1-6.15-3.17A15 15 0 0 1 57.31 77zm15.84-9.33A8.88 8.88 0 0 1 74.51 69a12.53 12.53 0 0 1 2.18 3.52 10.06 10.06 0 0 1 .36 1.09 5.65 5.65 0 0 1 .21 1.11 4.88 4.88 0 0 1 0 1.06 4.11 4.11 0 0 1-.16.95 3.2 3.2 0 0 1-.31.75 1.66 1.66 0 0 1-.35.51c-.22.26-.35.38-.35.38l.15-.49a1.93 1.93 0 0 0 .12-.54 4.59 4.59 0 0 0 .06-.7 6.54 6.54 0 0 0-.06-.82 8 8 0 0 0-.18-.91 8.68 8.68 0 0 0-.28-1 9.42 9.42 0 0 0-.36-1c-.25-.66-.56-1.3-.84-1.91l-.81-1.67c-.43-.97-.74-1.66-.74-1.66z"/>
        </g>
        <path class="thumb-lines" d="M41.54 38.86a2.17 2.17 0 0 1 .38-.58 1.4 1.4 0 0 0 .19-.71A5.19 5.19 0 0 0 42 36.5a4.09 4.09 0 0 0-1.23-2.11c-1.32-1.32-3.8-2.72-5.38-.94a2.19 2.19 0 0 0-.56 2.12 2.92 2.92 0 0 0 1.94 1.91c.42.14 1.11.27 1.37.39.9.41 1.95 1.15 3.14 1.06l-.28-.18.09.25a.23.23 0 0 0 .44-.12zM28.31 57.82c-2.32-.51-5-2-7.39-1a1.9 1.9 0 0 0 0 3.62c2.53.8 5-.79 7.39-1.47a.58.58 0 0 0 0-1.11zm3.16 26.83a3.94 3.94 0 0 0-3.36.62 4.6 4.6 0 0 0-1.73 3.26 2.11 2.11 0 0 0 2.11 2.11 2.13 2.13 0 0 0 2.11-2.11 1.59 1.59 0 0 1 0-.21v.2s.11-.4.11-.41-.2.39 0 0l.06-.11a.62.62 0 1 0-.08.12l.23-.27c.09-.09.37-.26.06-.09.07 0 .43-.23.1-.09a2.26 2.26 0 0 1 .4-.11 1.51 1.51 0 0 0 0-2.88zM69.1 34.84l.4-3a5.3 5.3 0 0 0-.25-3.34c-.75-1.6-3.16-1.39-4 0a5.6 5.6 0 0 0-.44 3.34l.13 3a2.07 2.07 0 0 0 4.14 0zM85 48.85l1.59-.38a2 2 0 1 0-1.08-3.92l-1.51.54a2 2 0 1 0 1 3.77z" fill="#fff"/>
      </svg>
